<svg xmlns="http://www.w3.org/2000/svg" xmlns:xlink="http://www.w3.org/1999/xlink" viewBox="0 0 500 500" width="528" height="528" style="width: 100%; height: 100%; transform: translate3d(0px, 0px, 0px); content-visibility: visible; background-color: transparent;" preserveAspectRatio="xMidYMid meet"><defs><clipPath id="__lottie_element_2"><rect width="500" height="500" x="0" y="0"/></clipPath><clipPath id="__lottie_element_4"><path d="M0,0 L500,0 L500,500 L0,500z"/></clipPath><clipPath id="__lottie_element_5"><path fill="#ffffff" clip-rule="nonzero" d=" M501,-2 C501,-2 -1,1 -1,1 C-1,1 -1,500 -1,500 C-1,500 501,-2 501,-2" fill-opacity="1"/></clipPath><clipPath id="__lottie_element_38"><path d="M0,0 L500,0 L500,500 L0,500z"/></clipPath><mask id="__lottie_element_39"><path fill="#ffffff" clip-rule="nonzero" d="M0,0  h500 v500 h-500 v-500  M502,-2 C502,-2 -1,501 -1,501 C-1,501 502,500 502,500 C502,500 502,-2 502,-2" fill-opacity="1"/></mask><clipPath id="__lottie_element_72"><path d="M0,0 L500,0 L500,500 L0,500z"/></clipPath><mask id="__lottie_element_73"><path fill="#ffffff" clip-rule="nonzero" d="M0,0  h500 v500 h-500 v-500  M501,-2 C501,-2 -1,1 -1,1 C-1,1 -1,500 -1,500 C-1,500 501,-2 501,-2" fill-opacity="1"/></mask><clipPath id="__lottie_element_106"><path d="M0,0 L500,0 L500,500 L0,500z"/></clipPath><clipPath id="__lottie_element_107"><path fill="#ffffff" clip-rule="nonzero" d=" M502,-2 C502,-2 -1,501 -1,501 C-1,501 502,500 502,500 C502,500 502,-2 502,-2" fill-opacity="1"/></clipPath><clipPath id="__lottie_element_140"><path fill="#ffffff" clip-rule="nonzero" d=" M308,14 C239.51699829101562,14 184,121.89900207519531 184,255 C184,388.10101318359375 239.51699829101562,496 308,496 C376.4830017089844,496 432,388.10101318359375 432,255 C432,121.89900207519531 376.4830017089844,14 308,14" fill-opacity="1"/></clipPath><clipPath id="__lottie_element_143"><path fill="#ffffff" clip-rule="nonzero" d=" M308,14 C239.51699829101562,14 184,121.89900207519531 184,255 C184,388.10101318359375 239.51699829101562,496 308,496 C376.4830017089844,496 432,388.10101318359375 432,255 C432,121.89900207519531 376.4830017089844,14 308,14" fill-opacity="1"/></clipPath></defs><g clip-path="url(#__lottie_element_2)"><g clip-path="url(#__lottie_element_143)" style="display: block;" transform="matrix(0.8344341516494751,-0.8058037161827087,0.8058037161827087,0.8344341516494751,-218.05947875976562,278.8423767089844)" opacity="1"><rect width="500" height="500" fill="#ffffff"/></g><g clip-path="url(#__lottie_element_140)" style="display: block;" transform="matrix(0.8344341516494751,0.8058037161827087,-0.8058037161827087,0.8344341516494751,200.84239196777344,-210.05947875976562)" opacity="1"><rect width="500" height="500" fill="#ffffff"/></g><g clip-path="url(#__lottie_element_106)" style="display: block;" transform="matrix(1,0,0,1,0,0)" opacity="1"><g clip-path="url(#__lottie_element_107)"><g style="display: block;" transform="matrix(0.30931612849235535,0.2987031042575836,-0.2987031042575836,0.30931612849235535,248,265)" opacity="1"><g opacity="1" transform="matrix(1,0,0,1,0,0)"><path stroke-linecap="round" stroke-linejoin="round" fill-opacity="0" stroke-dasharray=" 138" stroke-dashoffset="0" stroke="rgb(87,171,255)" stroke-opacity="1" stroke-width="73" d=" M-8,-580 C-71.53600311279297,-580 -122.81700134277344,-533.6160278320312 -161.43800354003906,-459.9840087890625"/></g></g><g style="display: block;" transform="matrix(0.30931612849235535,0.2987031042575836,-0.2987031042575836,0.30931612849235535,248,265)" opacity="1"><g opacity="1" transform="matrix(1,0,0,1,0,0)"><path stroke-linecap="round" stroke-linejoin="round" fill-opacity="0" stroke-dasharray=" 138" stroke-dashoffset="0" stroke="rgb(122,122,255)" stroke-opacity="1" stroke-width="73" d=" M-191.8719940185547,-389.4119873046875 C-207.81700134277344,-344.57000732421875 -220.4320068359375,-294.07598876953125 -229.66400146484375,-240.4759979248047"/></g></g><g style="display: block;" transform="matrix(0.30931612849235535,0.2987031042575836,-0.2987031042575836,0.30931612849235535,248,265)" opacity="1"><g opacity="1" transform="matrix(1,0,0,1,0,0)"><path stroke-linecap="round" stroke-linejoin="round" fill-opacity="0" stroke-dasharray=" 138" stroke-dashoffset="0" stroke="rgb(241,141,205)" stroke-opacity="1" stroke-width="73" d=" M-237.2779998779297,-189.76600646972656 C-245.83200073242188,-123.41999816894531 -249.48899841308594,-53.737998962402344 -248.15699768066406,14.880000114440918"/></g></g><g style="display: block;" transform="matrix(0.30931612849235535,0.2987031042575836,-0.2987031042575836,0.30931612849235535,248,265)" opacity="1"><g opacity="1" transform="matrix(1,0,0,1,0,0)"><path stroke-linecap="round" stroke-linejoin="round" fill-opacity="0" stroke-dasharray=" 138" stroke-dashoffset="0" stroke="rgb(237,211,78)" stroke-opacity="1" stroke-width="73" d=" M-242.32899475097656,117.25299835205078 C-237.19400024414062,170.67599487304688 -228.802001953125,221.97799682617188 -217.10400390625,268.8689880371094"/></g></g><g style="display: block;" transform="matrix(0.30931612849235535,0.2987031042575836,-0.2987031042575836,0.30931612849235535,248,265)" opacity="1"><g opacity="1" transform="matrix(1,0,0,1,0,0)"><path stroke-linecap="round" stroke-linejoin="round" fill-opacity="0" stroke-dasharray=" 138" stroke-dashoffset="0" stroke="rgb(126,221,89)" stroke-opacity="1" stroke-width="73" d=" M-185.09100341796875,366.1820068359375 C-161.58099365234375,421.04998779296875 -131.4429931640625,463.760009765625 -94.54399871826172,487.9200134277344"/></g></g><g style="display: block;" transform="matrix(0.30931612849235535,0.2987031042575836,-0.2987031042575836,0.30931612849235535,248,265)" opacity="1"><g opacity="1" transform="matrix(1,0,0,1,0,0)"><path stroke-linecap="round" stroke-linejoin="round" fill-opacity="0" stroke-dasharray=" 138" stroke-dashoffset="0" stroke="rgb(160,231,136)" stroke-opacity="1" stroke-width="73" d=" M27.95800018310547,500.0920104980469 C63.51599884033203,485.4129943847656 94.11799621582031,455.0849914550781 119.74199676513672,413.5920104980469"/></g></g><g style="display: block;" transform="matrix(0.30931612849235535,0.2987031042575836,-0.2987031042575836,0.30931612849235535,248,265)" opacity="1"><g opacity="1" transform="matrix(1,0,0,1,0,0)"><path stroke-linecap="round" stroke-linejoin="round" fill-opacity="0" stroke-dasharray=" 138" stroke-dashoffset="0" stroke="rgb(247,188,97)" stroke-opacity="1" stroke-width="73" d=" M153.93699645996094,344.7950134277344 C171.5540008544922,301.10400390625 185.56700134277344,250.93600463867188 195.96099853515625,197.04600524902344"/></g></g><g style="display: block;" transform="matrix(0.30931612849235535,0.2987031042575836,-0.2987031042575836,0.30931612849235535,248,265)" opacity="1"><g opacity="1" transform="matrix(1,0,0,1,0,0)"><path stroke-linecap="round" stroke-linejoin="round" fill-opacity="0" stroke-dasharray=" 138" stroke-dashoffset="0" stroke="rgb(250,142,182)" stroke-opacity="1" stroke-width="73" d=" M207.9459991455078,121.0770034790039 C214.1739959716797,71.21900177001953 217.6020050048828,19.457000732421875 218.2209930419922,-32.33700180053711"/></g></g><g style="display: block;" transform="matrix(0.30931612849235535,0.2987031042575836,-0.2987031042575836,0.30931612849235535,248,265)" opacity="1"><g opacity="1" transform="matrix(1,0,0,1,0,0)"><path stroke-linecap="round" stroke-linejoin="round" fill-opacity="0" stroke-dasharray=" 138" stroke-dashoffset="0" stroke="rgb(214,137,250)" stroke-opacity="1" stroke-width="73" d=" M217.91400146484375,-83.61199951171875 C216.22000122070312,-154.25 209.25900268554688,-223.7899932861328 197.00999450683594,-287.4339904785156"/></g></g><g style="display: block;" transform="matrix(0.30931612849235535,0.2987031042575836,-0.2987031042575836,0.30931612849235535,248,265)" opacity="1"><g opacity="1" transform="matrix(1,0,0,1,0,0)"><path stroke-linecap="round" stroke-linejoin="round" fill-opacity="0" stroke-dasharray=" 138" stroke-dashoffset="0" stroke="rgb(135,175,254)" stroke-opacity="1" stroke-width="73" d=" M185.9550018310547,-337.5039978027344 C166.64599609375,-414.3739929199219 138.68099975585938,-479.4939880371094 102.01300048828125,-522.8319702148438"/></g></g></g></g><g clip-path="url(#__lottie_element_72)" style="display: block;" transform="matrix(0,-1,1,0,0,500)" opacity="1"><g mask="url(#__lottie_element_73)"><g style="display: block;" transform="matrix(0.30931612849235535,0.2987031042575836,-0.2987031042575836,0.30931612849235535,248,265)" opacity="1"><g opacity="1" transform="matrix(1,0,0,1,0,0)"><path stroke-linecap="round" stroke-linejoin="round" fill-opacity="0" stroke-dasharray=" 138" stroke-dashoffset="0" stroke="rgb(87,171,255)" stroke-opacity="1" stroke-width="73" d=" M-8,-580 C-71.53600311279297,-580 -122.81700134277344,-533.6160278320312 -161.43800354003906,-459.9840087890625"/></g></g><g style="display: block;" transform="matrix(0.30931612849235535,0.2987031042575836,-0.2987031042575836,0.30931612849235535,248,265)" opacity="1"><g opacity="1" transform="matrix(1,0,0,1,0,0)"><path stroke-linecap="round" stroke-linejoin="round" fill-opacity="0" stroke-dasharray=" 138" stroke-dashoffset="0" stroke="rgb(122,122,255)" stroke-opacity="1" stroke-width="73" d=" M-191.8719940185547,-389.4119873046875 C-207.81700134277344,-344.57000732421875 -220.4320068359375,-294.07598876953125 -229.66400146484375,-240.4759979248047"/></g></g><g style="display: block;" transform="matrix(0.30931612849235535,0.2987031042575836,-0.2987031042575836,0.30931612849235535,248,265)" opacity="1"><g opacity="1" transform="matrix(1,0,0,1,0,0)"><path stroke-linecap="round" stroke-linejoin="round" fill-opacity="0" stroke-dasharray=" 138" stroke-dashoffset="0" stroke="rgb(241,141,205)" stroke-opacity="1" stroke-width="73" d=" M-237.2779998779297,-189.76600646972656 C-245.83200073242188,-123.41999816894531 -249.48899841308594,-53.737998962402344 -248.15699768066406,14.880000114440918"/></g></g><g style="display: block;" transform="matrix(0.30931612849235535,0.2987031042575836,-0.2987031042575836,0.30931612849235535,248,265)" opacity="1"><g opacity="1" transform="matrix(1,0,0,1,0,0)"><path stroke-linecap="round" stroke-linejoin="round" fill-opacity="0" stroke-dasharray=" 138" stroke-dashoffset="0" stroke="rgb(237,211,78)" stroke-opacity="1" stroke-width="73" d=" M-242.32899475097656,117.25299835205078 C-237.19400024414062,170.67599487304688 -228.802001953125,221.97799682617188 -217.10400390625,268.8689880371094"/></g></g><g style="display: block;" transform="matrix(0.30931612849235535,0.2987031042575836,-0.2987031042575836,0.30931612849235535,248,265)" opacity="1"><g opacity="1" transform="matrix(1,0,0,1,0,0)"><path stroke-linecap="round" stroke-linejoin="round" fill-opacity="0" stroke-dasharray=" 138" stroke-dashoffset="0" stroke="rgb(126,221,89)" stroke-opacity="1" stroke-width="73" d=" M-185.09100341796875,366.1820068359375 C-161.58099365234375,421.04998779296875 -131.4429931640625,463.760009765625 -94.54399871826172,487.9200134277344"/></g></g><g style="display: block;" transform="matrix(0.30931612849235535,0.2987031042575836,-0.2987031042575836,0.30931612849235535,248,265)" opacity="1"><g opacity="1" transform="matrix(1,0,0,1,0,0)"><path stroke-linecap="round" stroke-linejoin="round" fill-opacity="0" stroke-dasharray=" 138" stroke-dashoffset="0" stroke="rgb(160,231,136)" stroke-opacity="1" stroke-width="73" d=" M27.95800018310547,500.0920104980469 C63.51599884033203,485.4129943847656 94.11799621582031,455.0849914550781 119.74199676513672,413.5920104980469"/></g></g><g style="display: block;" transform="matrix(0.30931612849235535,0.2987031042575836,-0.2987031042575836,0.30931612849235535,248,265)" opacity="1"><g opacity="1" transform="matrix(1,0,0,1,0,0)"><path stroke-linecap="round" stroke-linejoin="round" fill-opacity="0" stroke-dasharray=" 138" stroke-dashoffset="0" stroke="rgb(247,188,97)" stroke-opacity="1" stroke-width="73" d=" M153.93699645996094,344.7950134277344 C171.5540008544922,301.10400390625 185.56700134277344,250.93600463867188 195.96099853515625,197.04600524902344"/></g></g><g style="display: block;" transform="matrix(0.30931612849235535,0.2987031042575836,-0.2987031042575836,0.30931612849235535,248,265)" opacity="1"><g opacity="1" transform="matrix(1,0,0,1,0,0)"><path stroke-linecap="round" stroke-linejoin="round" fill-opacity="0" stroke-dasharray=" 138" stroke-dashoffset="0" stroke="rgb(250,142,182)" stroke-opacity="1" stroke-width="73" d=" M207.9459991455078,121.0770034790039 C214.1739959716797,71.21900177001953 217.6020050048828,19.457000732421875 218.2209930419922,-32.33700180053711"/></g></g><g style="display: block;" transform="matrix(0.30931612849235535,0.2987031042575836,-0.2987031042575836,0.30931612849235535,248,265)" opacity="1"><g opacity="1" transform="matrix(1,0,0,1,0,0)"><path stroke-linecap="round" stroke-linejoin="round" fill-opacity="0" stroke-dasharray=" 138" stroke-dashoffset="0" stroke="rgb(214,137,250)" stroke-opacity="1" stroke-width="73" d=" M217.91400146484375,-83.61199951171875 C216.22000122070312,-154.25 209.25900268554688,-223.7899932861328 197.00999450683594,-287.4339904785156"/></g></g><g style="display: block;" transform="matrix(0.30931612849235535,0.2987031042575836,-0.2987031042575836,0.30931612849235535,248,265)" opacity="1"><g opacity="1" transform="matrix(1,0,0,1,0,0)"><path stroke-linecap="round" stroke-linejoin="round" fill-opacity="0" stroke-dasharray=" 138" stroke-dashoffset="0" stroke="rgb(135,175,254)" stroke-opacity="1" stroke-width="73" d=" M185.9550018310547,-337.5039978027344 C166.64599609375,-414.3739929199219 138.68099975585938,-479.4939880371094 102.01300048828125,-522.8319702148438"/></g></g></g></g><g clip-path="url(#__lottie_element_38)" style="display: block;" transform="matrix(1,0,0,1,0,0)" opacity="1"><g mask="url(#__lottie_element_39)"><g style="display: block;" transform="matrix(0.30931612849235535,0.2987031042575836,-0.2987031042575836,0.30931612849235535,248,265)" opacity="1"><g opacity="1" transform="matrix(1,0,0,1,0,0)"><path stroke-linecap="round" stroke-linejoin="round" fill-opacity="0" stroke-dasharray=" 138" stroke-dashoffset="0" stroke="rgb(87,171,255)" stroke-opacity="1" stroke-width="73" d=" M-8,-580 C-71.53600311279297,-580 -122.81700134277344,-533.6160278320312 -161.43800354003906,-459.9840087890625"/></g></g><g style="display: block;" transform="matrix(0.30931612849235535,0.2987031042575836,-0.2987031042575836,0.30931612849235535,248,265)" opacity="1"><g opacity="1" transform="matrix(1,0,0,1,0,0)"><path stroke-linecap="round" stroke-linejoin="round" fill-opacity="0" stroke-dasharray=" 138" stroke-dashoffset="0" stroke="rgb(122,122,255)" stroke-opacity="1" stroke-width="73" d=" M-191.8719940185547,-389.4119873046875 C-207.81700134277344,-344.57000732421875 -220.4320068359375,-294.07598876953125 -229.66400146484375,-240.4759979248047"/></g></g><g style="display: block;" transform="matrix(0.30931612849235535,0.2987031042575836,-0.2987031042575836,0.30931612849235535,248,265)" opacity="1"><g opacity="1" transform="matrix(1,0,0,1,0,0)"><path stroke-linecap="round" stroke-linejoin="round" fill-opacity="0" stroke-dasharray=" 138" stroke-dashoffset="0" stroke="rgb(241,141,205)" stroke-opacity="1" stroke-width="73" d=" M-237.2779998779297,-189.76600646972656 C-245.83200073242188,-123.41999816894531 -249.48899841308594,-53.737998962402344 -248.15699768066406,14.880000114440918"/></g></g><g style="display: block;" transform="matrix(0.30931612849235535,0.2987031042575836,-0.2987031042575836,0.30931612849235535,248,265)" opacity="1"><g opacity="1" transform="matrix(1,0,0,1,0,0)"><path stroke-linecap="round" stroke-linejoin="round" fill-opacity="0" stroke-dasharray=" 138" stroke-dashoffset="0" stroke="rgb(237,211,78)" stroke-opacity="1" stroke-width="73" d=" M-242.32899475097656,117.25299835205078 C-237.19400024414062,170.67599487304688 -228.802001953125,221.97799682617188 -217.10400390625,268.8689880371094"/></g></g><g style="display: block;" transform="matrix(0.30931612849235535,0.2987031042575836,-0.2987031042575836,0.30931612849235535,248,265)" opacity="1"><g opacity="1" transform="matrix(1,0,0,1,0,0)"><path stroke-linecap="round" stroke-linejoin="round" fill-opacity="0" stroke-dasharray=" 138" stroke-dashoffset="0" stroke="rgb(126,221,89)" stroke-opacity="1" stroke-width="73" d=" M-185.09100341796875,366.1820068359375 C-161.58099365234375,421.04998779296875 -131.4429931640625,463.760009765625 -94.54399871826172,487.9200134277344"/></g></g><g style="display: block;" transform="matrix(0.30931612849235535,0.2987031042575836,-0.2987031042575836,0.30931612849235535,248,265)" opacity="1"><g opacity="1" transform="matrix(1,0,0,1,0,0)"><path stroke-linecap="round" stroke-linejoin="round" fill-opacity="0" stroke-dasharray=" 138" stroke-dashoffset="0" stroke="rgb(160,231,136)" stroke-opacity="1" stroke-width="73" d=" M27.95800018310547,500.0920104980469 C63.51599884033203,485.4129943847656 94.11799621582031,455.0849914550781 119.74199676513672,413.5920104980469"/></g></g><g style="display: block;" transform="matrix(0.30931612849235535,0.2987031042575836,-0.2987031042575836,0.30931612849235535,248,265)" opacity="1"><g opacity="1" transform="matrix(1,0,0,1,0,0)"><path stroke-linecap="round" stroke-linejoin="round" fill-opacity="0" stroke-dasharray=" 138" stroke-dashoffset="0" stroke="rgb(247,188,97)" stroke-opacity="1" stroke-width="73" d=" M153.93699645996094,344.7950134277344 C171.5540008544922,301.10400390625 185.56700134277344,250.93600463867188 195.96099853515625,197.04600524902344"/></g></g><g style="display: block;" transform="matrix(0.30931612849235535,0.2987031042575836,-0.2987031042575836,0.30931612849235535,248,265)" opacity="1"><g opacity="1" transform="matrix(1,0,0,1,0,0)"><path stroke-linecap="round" stroke-linejoin="round" fill-opacity="0" stroke-dasharray=" 138" stroke-dashoffset="0" stroke="rgb(250,142,182)" stroke-opacity="1" stroke-width="73" d=" M207.9459991455078,121.0770034790039 C214.1739959716797,71.21900177001953 217.6020050048828,19.457000732421875 218.2209930419922,-32.33700180053711"/></g></g><g style="display: block;" transform="matrix(0.30931612849235535,0.2987031042575836,-0.2987031042575836,0.30931612849235535,248,265)" opacity="1"><g opacity="1" transform="matrix(1,0,0,1,0,0)"><path stroke-linecap="round" stroke-linejoin="round" fill-opacity="0" stroke-dasharray=" 138" stroke-dashoffset="0" stroke="rgb(214,137,250)" stroke-opacity="1" stroke-width="73" d=" M217.91400146484375,-83.61199951171875 C216.22000122070312,-154.25 209.25900268554688,-223.7899932861328 197.00999450683594,-287.4339904785156"/></g></g><g style="display: block;" transform="matrix(0.30931612849235535,0.2987031042575836,-0.2987031042575836,0.30931612849235535,248,265)" opacity="1"><g opacity="1" transform="matrix(1,0,0,1,0,0)"><path stroke-linecap="round" stroke-linejoin="round" fill-opacity="0" stroke-dasharray=" 138" stroke-dashoffset="0" stroke="rgb(135,175,254)" stroke-opacity="1" stroke-width="73" d=" M185.9550018310547,-337.5039978027344 C166.64599609375,-414.3739929199219 138.68099975585938,-479.4939880371094 102.01300048828125,-522.8319702148438"/></g></g></g></g><g clip-path="url(#__lottie_element_4)" style="display: block;" transform="matrix(0,-1,1,0,0,500)" opacity="1"><g clip-path="url(#__lottie_element_5)"><g style="display: block;" transform="matrix(0.30931612849235535,0.2987031042575836,-0.2987031042575836,0.30931612849235535,248,265)" opacity="1"><g opacity="1" transform="matrix(1,0,0,1,0,0)"><path stroke-linecap="round" stroke-linejoin="round" fill-opacity="0" stroke-dasharray=" 138" stroke-dashoffset="0" stroke="rgb(87,171,255)" stroke-opacity="1" stroke-width="73" d=" M-8,-580 C-71.53600311279297,-580 -122.81700134277344,-533.6160278320312 -161.43800354003906,-459.9840087890625"/></g></g><g style="display: block;" transform="matrix(0.30931612849235535,0.2987031042575836,-0.2987031042575836,0.30931612849235535,248,265)" opacity="1"><g opacity="1" transform="matrix(1,0,0,1,0,0)"><path stroke-linecap="round" stroke-linejoin="round" fill-opacity="0" stroke-dasharray=" 138" stroke-dashoffset="0" stroke="rgb(122,122,255)" stroke-opacity="1" stroke-width="73" d=" M-191.8719940185547,-389.4119873046875 C-207.81700134277344,-344.57000732421875 -220.4320068359375,-294.07598876953125 -229.66400146484375,-240.4759979248047"/></g></g><g style="display: block;" transform="matrix(0.30931612849235535,0.2987031042575836,-0.2987031042575836,0.30931612849235535,248,265)" opacity="1"><g opacity="1" transform="matrix(1,0,0,1,0,0)"><path stroke-linecap="round" stroke-linejoin="round" fill-opacity="0" stroke-dasharray=" 138" stroke-dashoffset="0" stroke="rgb(241,141,205)" stroke-opacity="1" stroke-width="73" d=" M-237.2779998779297,-189.76600646972656 C-245.83200073242188,-123.41999816894531 -249.48899841308594,-53.737998962402344 -248.15699768066406,14.880000114440918"/></g></g><g style="display: block;" transform="matrix(0.30931612849235535,0.2987031042575836,-0.2987031042575836,0.30931612849235535,248,265)" opacity="1"><g opacity="1" transform="matrix(1,0,0,1,0,0)"><path stroke-linecap="round" stroke-linejoin="round" fill-opacity="0" stroke-dasharray=" 138" stroke-dashoffset="0" stroke="rgb(237,211,78)" stroke-opacity="1" stroke-width="73" d=" M-242.32899475097656,117.25299835205078 C-237.19400024414062,170.67599487304688 -228.802001953125,221.97799682617188 -217.10400390625,268.8689880371094"/></g></g><g style="display: block;" transform="matrix(0.30931612849235535,0.2987031042575836,-0.2987031042575836,0.30931612849235535,248,265)" opacity="1"><g opacity="1" transform="matrix(1,0,0,1,0,0)"><path stroke-linecap="round" stroke-linejoin="round" fill-opacity="0" stroke-dasharray=" 138" stroke-dashoffset="0" stroke="rgb(126,221,89)" stroke-opacity="1" stroke-width="73" d=" M-185.09100341796875,366.1820068359375 C-161.58099365234375,421.04998779296875 -131.4429931640625,463.760009765625 -94.54399871826172,487.9200134277344"/></g></g><g style="display: block;" transform="matrix(0.30931612849235535,0.2987031042575836,-0.2987031042575836,0.30931612849235535,248,265)" opacity="1"><g opacity="1" transform="matrix(1,0,0,1,0,0)"><path stroke-linecap="round" stroke-linejoin="round" fill-opacity="0" stroke-dasharray=" 138" stroke-dashoffset="0" stroke="rgb(160,231,136)" stroke-opacity="1" stroke-width="73" d=" M27.95800018310547,500.0920104980469 C63.51599884033203,485.4129943847656 94.11799621582031,455.0849914550781 119.74199676513672,413.5920104980469"/></g></g><g style="display: block;" transform="matrix(0.30931612849235535,0.2987031042575836,-0.2987031042575836,0.30931612849235535,248,265)" opacity="1"><g opacity="1" transform="matrix(1,0,0,1,0,0)"><path stroke-linecap="round" stroke-linejoin="round" fill-opacity="0" stroke-dasharray=" 138" stroke-dashoffset="0" stroke="rgb(247,188,97)" stroke-opacity="1" stroke-width="73" d=" M153.93699645996094,344.7950134277344 C171.5540008544922,301.10400390625 185.56700134277344,250.93600463867188 195.96099853515625,197.04600524902344"/></g></g><g style="display: block;" transform="matrix(0.30931612849235535,0.2987031042575836,-0.2987031042575836,0.30931612849235535,248,265)" opacity="1"><g opacity="1" transform="matrix(1,0,0,1,0,0)"><path stroke-linecap="round" stroke-linejoin="round" fill-opacity="0" stroke-dasharray=" 138" stroke-dashoffset="0" stroke="rgb(250,142,182)" stroke-opacity="1" stroke-width="73" d=" M207.9459991455078,121.0770034790039 C214.1739959716797,71.21900177001953 217.6020050048828,19.457000732421875 218.2209930419922,-32.33700180053711"/></g></g><g style="display: block;" transform="matrix(0.30931612849235535,0.2987031042575836,-0.2987031042575836,0.30931612849235535,248,265)" opacity="1"><g opacity="1" transform="matrix(1,0,0,1,0,0)"><path stroke-linecap="round" stroke-linejoin="round" fill-opacity="0" stroke-dasharray=" 138" stroke-dashoffset="0" stroke="rgb(214,137,250)" stroke-opacity="1" stroke-width="73" d=" M217.91400146484375,-83.61199951171875 C216.22000122070312,-154.25 209.25900268554688,-223.7899932861328 197.00999450683594,-287.4339904785156"/></g></g><g style="display: block;" transform="matrix(0.30931612849235535,0.2987031042575836,-0.2987031042575836,0.30931612849235535,248,265)" opacity="1"><g opacity="1" transform="matrix(1,0,0,1,0,0)"><path stroke-linecap="round" stroke-linejoin="round" fill-opacity="0" stroke-dasharray=" 138" stroke-dashoffset="0" stroke="rgb(135,175,254)" stroke-opacity="1" stroke-width="73" d=" M185.9550018310547,-337.5039978027344 C166.64599609375,-414.3739929199219 138.68099975585938,-479.4939880371094 102.01300048828125,-522.8319702148438"/></g></g></g></g></g></svg>