<svg width="74" height="73" viewBox="0 0 74 73" fill="none" xmlns="http://www.w3.org/2000/svg">
<path d="M39.7455 31.0977C37.104 28.28 35.7807 24.8807 35.7807 20.9265C35.7807 19.4706 35.9866 18.0438 36.3983 16.6475C36.7243 15.5414 37.1791 14.492 37.7622 13.5H15.1042C13.8108 13.5 12.7327 13.9514 11.8395 14.8632C10.946 15.7754 10.5 16.8808 10.5 18.2106V56.7895C10.5 58.1192 10.946 59.2247 11.8395 60.1369C12.7327 61.0487 13.8108 61.5 15.1042 61.5H52.8958C54.1892 61.5 55.2673 61.0487 56.1605 60.1369C57.054 59.2247 57.5 58.1192 57.5 56.7895V33.66C56.5341 34.249 55.5123 34.7094 54.4353 35.0402L39.7455 31.0977ZM39.7455 31.0977L31.1614 28.3764L30.7368 28.2418L30.5542 28.648L25.0955 40.7934L17.7433 50.7273L17.1531 51.5248H18.1452H56.5176H57.1304L57.0075 50.9244L53.9223 35.861L53.8634 35.5734L53.5835 35.4847L46.8512 33.3504C46.9038 33.3468 46.9565 33.3433 47.0094 33.3397C47.775 33.2877 48.5754 33.2334 49.4463 33.2334C49.6718 33.2334 49.9784 33.3294 50.379 33.5254C50.697 33.681 51.0282 33.8754 51.3807 34.0823C51.4649 34.1317 51.5503 34.1818 51.637 34.2323C52.0724 34.4857 52.5403 34.7473 52.9929 34.9163C53.4387 35.0828 53.9476 35.19 54.4353 35.0402L39.7455 31.0977Z" stroke="#2ABBFF"/>
<path d="M21.0387 58.0834C19.6074 58.0834 18.3959 57.5876 17.4042 56.5959C16.4126 55.6042 15.9167 54.3928 15.9167 52.9615V15.0387C15.9167 13.6074 16.4126 12.3959 17.4042 11.4042C18.3959 10.4126 19.6074 9.91675 21.0387 9.91675H44.6857C43.8867 11.0718 43.2875 12.3133 42.888 13.6412C42.4885 14.9686 42.2887 16.3243 42.2887 17.7084C42.2887 21.5915 43.6518 24.8961 46.3779 27.6222C49.1041 30.3484 52.4087 31.7115 56.2917 31.7115C57.6758 31.7115 59.0316 31.5117 60.359 31.1122C61.6869 30.7127 62.9284 30.1135 64.0834 29.3145V52.9615C64.0834 54.3928 63.5876 55.6042 62.5959 56.5959C61.6042 57.5876 60.3928 58.0834 58.9615 58.0834H21.0387ZM24.0902 47.2948H55.91L46.0209 34.1092L37.5209 45.1429L31.5001 37.4872L24.0902 47.2948ZM54.1667 25.5001V19.8334H48.5001V15.5834H54.1667V9.91675H58.4167V15.5834H64.0834V19.8334H58.4167V25.5001H54.1667Z" fill="#2ABBFF"/>
</svg>
