<svg width="41" height="41" viewBox="0 0 41 41" fill="none" xmlns="http://www.w3.org/2000/svg">
<path d="M9.06737 35.0208C8.20437 35.0208 7.47392 34.7218 6.876 34.1239C6.27808 33.526 5.97913 32.7955 5.97913 31.9326V9.06737C5.97913 8.20437 6.27808 7.47392 6.876 6.876C7.47392 6.27808 8.20437 5.97913 9.06737 5.97913H23.3251C22.8434 6.67556 22.4821 7.42409 22.2412 8.22473C22.0003 9.02508 21.8799 9.84252 21.8799 10.677C21.8799 13.0183 22.7017 15.0108 24.3454 16.6545C25.9891 18.2982 27.9816 19.1201 30.3229 19.1201C31.1574 19.1201 31.9748 18.9996 32.7752 18.7587C33.5758 18.5179 34.3244 18.1566 35.0208 17.6748V31.9326C35.0208 32.7955 34.7218 33.526 34.1239 34.1239C33.526 34.7218 32.7955 35.0208 31.9326 35.0208H9.06737ZM10.9072 28.5159H30.0927L24.1302 20.5657L19.0052 27.2184L15.375 22.6025L10.9072 28.5159ZM29.0416 15.375V11.9583H25.625V9.39579H29.0416V5.97913H31.6041V9.39579H35.0208V11.9583H31.6041V15.375H29.0416Z" fill="#B7B7B7"/>
</svg>
