<svg width="38" height="35" viewBox="0 0 38 35" fill="none" xmlns="http://www.w3.org/2000/svg">
<path d="M9.26378 26.4233C8.75105 25.5466 2.4213 18.0212 2.14941 17.1162C1.87752 16.2111 1.74158 15.3055 1.74158 14.3995C1.74158 11.9492 2.63298 9.8823 4.41579 8.19878C6.19835 6.51501 8.38685 5.67313 10.9813 5.67313C12.5427 5.67313 14.0356 6.01884 15.4599 6.71028C16.8842 7.40172 18.1178 8.38117 19.1607 9.64864C20.2036 8.38117 21.4372 7.40172 22.8615 6.71028C24.2859 6.01884 25.7787 5.67313 27.3401 5.67313C29.9346 5.67313 32.1231 6.51501 33.9056 8.19878C35.6884 9.8823 36.5798 11.9492 36.5798 14.3995C36.5798 15.2872 36.4439 16.179 36.172 17.075C35.9001 17.9708 30.6931 25.9553 30.1804 26.8596C29.961 26.5349 29.4533 26.2441 29.1572 25.9873C28.8611 25.7308 28.5285 25.5226 28.1594 25.3629C28.5128 24.6862 33.8464 16.9439 34.031 16.3047C34.2155 15.6655 34.3078 15.0304 34.3078 14.3995C34.3078 12.5489 33.6364 10.9894 32.2936 9.72125C30.9508 8.45306 29.2997 7.81896 27.3401 7.81896C25.5381 7.81896 24.0443 8.30595 22.8585 9.27992C21.673 10.2537 20.4404 11.4833 19.1607 12.969C17.881 11.4688 16.6484 10.2354 15.4629 9.26883C14.2772 8.30225 12.7833 7.81896 10.9813 7.81896C9.02177 7.81896 7.37061 8.45306 6.02782 9.72125C4.68503 10.9894 4.01364 12.5489 4.01364 14.3995C4.01364 15.0488 4.10591 15.6953 4.29045 16.339C4.47499 16.9828 10.6765 24.2684 11.0201 24.9269C10.6513 25.0955 10.3212 25.3059 10.0298 25.5582C9.73852 25.8104 9.48316 26.0988 9.26378 26.4233ZM10.5176 31.4507V29.7065C10.5176 28.7399 11.0453 27.9545 12.1008 27.3504C13.1563 26.746 14.5269 26.4437 16.2125 26.4437C16.5212 26.4437 16.8174 26.452 17.1009 26.4684C16.2882 26.3722 17.3844 26.4849 17.1009 26.4684C17.9923 26.4684 20.7464 26.7907 21.339 27.3504C22.0296 28.0026 22.4832 28.8912 22.4832 29.4286V31.4507H10.5176ZM23.0866 31.4507V29.4286C23.0866 28.8912 23.0192 28.385 22.8844 27.9101C22.7493 27.4351 22.5469 26.9866 22.277 26.5646C22.5353 26.5169 22.8022 26.4849 23.0779 26.4684C23.3536 26.452 23.6381 26.4437 23.9314 26.4437C25.6325 26.4437 27.0044 26.746 28.0473 27.3504C29.0902 27.9545 29.6116 28.7399 29.6116 29.7065V31.4507H23.0866ZM16.2125 25.0543C15.4958 25.0543 14.8845 24.8155 14.3786 24.338C13.8727 23.8602 13.6197 23.2828 13.6197 22.6059C13.6197 21.9238 13.8727 21.3475 14.3786 20.8771C14.8845 20.4067 15.4958 20.1715 16.2125 20.1715C16.9348 20.1715 17.5473 20.4067 18.0502 20.8771C18.5534 21.3475 18.8049 21.9238 18.8049 22.6059C18.8049 23.2828 18.5534 23.8602 18.0502 24.338C17.5473 24.8155 16.9348 25.0543 16.2125 25.0543ZM23.9314 25.0543C23.2246 25.0543 22.6158 24.8155 22.1051 24.338C21.5944 23.8602 21.339 23.2828 21.339 22.6059C21.339 21.9238 21.5944 21.3475 22.1051 20.8771C22.6158 20.4067 23.2246 20.1715 23.9314 20.1715C24.6636 20.1715 25.2787 20.4067 25.7767 20.8771C26.2748 21.3475 26.5239 21.9238 26.5239 22.6059C26.5239 23.2828 26.2748 23.8602 25.7767 24.338C25.2787 24.8155 24.6636 25.0543 23.9314 25.0543Z" fill="#FFB0B0"/>
<path d="M9.26378 26.4233C8.75105 25.5466 2.4213 18.0212 2.14941 17.1162C1.87752 16.2111 1.74158 15.3055 1.74158 14.3995C1.74158 11.9492 2.63298 9.8823 4.41579 8.19878C6.19835 6.51501 8.38685 5.67313 10.9813 5.67313C12.5427 5.67313 14.0356 6.01884 15.4599 6.71028C16.8842 7.40172 18.1178 8.38117 19.1607 9.64864C20.2036 8.38117 21.4372 7.40172 22.8615 6.71028C24.2859 6.01884 25.7787 5.67313 27.3401 5.67313C29.9346 5.67313 32.1231 6.51501 33.9056 8.19878C35.6884 9.8823 36.5798 11.9492 36.5798 14.3995C36.5798 15.2872 36.4439 16.179 36.172 17.075C35.9001 17.9708 30.6931 25.9553 30.1804 26.8596C29.961 26.5349 29.4533 26.2441 29.1572 25.9873C28.8611 25.7308 28.5285 25.5226 28.1594 25.3629C28.5128 24.6862 33.8464 16.9439 34.031 16.3047C34.2155 15.6655 34.3078 15.0304 34.3078 14.3995C34.3078 12.5489 33.6364 10.9894 32.2936 9.72125C30.9508 8.45306 29.2997 7.81896 27.3401 7.81896C25.5381 7.81896 24.0443 8.30595 22.8585 9.27992C21.673 10.2537 20.4404 11.4833 19.1607 12.969C17.881 11.4688 16.6484 10.2354 15.4629 9.26883C14.2772 8.30225 12.7833 7.81896 10.9813 7.81896C9.02177 7.81896 7.37061 8.45306 6.02782 9.72125C4.68503 10.9894 4.01364 12.5489 4.01364 14.3995C4.01364 15.0488 4.10591 15.6953 4.29045 16.339C4.47499 16.9828 10.6765 24.2684 11.0201 24.9269C10.6513 25.0955 10.3212 25.3059 10.0298 25.5582C9.73852 25.8104 9.48316 26.0988 9.26378 26.4233ZM10.5176 31.4507V29.7065C10.5176 28.7399 11.0453 27.9545 12.1008 27.3504C13.1563 26.746 14.5269 26.4437 16.2125 26.4437C16.5212 26.4437 16.8174 26.452 17.1009 26.4684C16.2882 26.3722 17.3844 26.4849 17.1009 26.4684C17.9923 26.4684 20.7464 26.7907 21.339 27.3504C22.0296 28.0026 22.4832 28.8912 22.4832 29.4286V31.4507H10.5176ZM16.2125 25.0543C15.4958 25.0543 14.8845 24.8155 14.3786 24.338C13.8727 23.8602 13.6197 23.2828 13.6197 22.6059C13.6197 21.9238 13.8727 21.3475 14.3786 20.8771C14.8845 20.4067 15.4958 20.1715 16.2125 20.1715C16.9348 20.1715 17.5473 20.4067 18.0502 20.8771C18.5534 21.3475 18.8049 21.9238 18.8049 22.6059C18.8049 23.2828 18.5534 23.8602 18.0502 24.338C17.5473 24.8155 16.9348 25.0543 16.2125 25.0543Z" fill="#FF3939"/>
</svg>
