<svg width="36" height="36" viewBox="0 0 36 36" fill="none" xmlns="http://www.w3.org/2000/svg">
<path d="M10.3985 9.05009C9.6514 9.05009 9.01185 8.78409 8.47986 8.25209C7.94786 7.7201 7.68186 7.08055 7.68186 6.33345C7.68186 5.58636 7.94786 4.94669 8.47986 4.41445C9.01185 3.88245 9.6514 3.61646 10.3985 3.61646C11.1456 3.61646 11.7851 3.88245 12.3171 4.41445C12.8494 4.94669 13.1155 5.58636 13.1155 6.33345C13.1155 7.08055 12.8494 7.7201 12.3171 8.25209C11.7851 8.78409 11.1456 9.05009 10.3985 9.05009ZM24.8602 16.7762C24.2941 16.7762 23.8082 16.5754 23.4026 16.1739C22.9969 15.7721 22.794 15.2843 22.794 14.7103C22.794 14.1254 22.9969 13.6348 23.4026 13.2387C23.8082 12.8426 24.2941 12.6445 24.8602 12.6445C25.4449 12.6445 25.9355 12.8426 26.3318 13.2387C26.728 13.6348 26.926 14.123 26.926 14.7034C26.926 15.2834 26.728 15.774 26.3318 16.175C25.9355 16.5758 25.4449 16.7762 24.8602 16.7762ZM7.62521 32.3699V22.3798H5.30444V13.635C5.30444 12.9033 5.56492 12.277 6.08588 11.756C6.60684 11.2351 7.23314 10.9746 7.96479 10.9746H12.323C12.8437 10.9746 13.3131 11.1082 13.731 11.3753C14.1489 11.6421 14.4691 12.0086 14.6916 12.4746L19.1602 21.8731L21.6028 19.0631C21.7894 18.8254 22.0211 18.6395 22.2977 18.5053C22.5742 18.3714 22.866 18.3044 23.1734 18.3044H26.7844C27.3426 18.3044 27.8171 18.4998 28.2078 18.8905C28.5985 19.2812 28.7939 19.7557 28.7939 20.314V25.4363H27.3223V32.3699H22.3978V21.4684L20.4085 23.6818H17.5528L14.0776 16.0035V32.3699H7.62521Z" fill="#00AEFF"/>
<path d="M10.3985 9.05009C9.6514 9.05009 9.01185 8.78409 8.47986 8.25209C7.94786 7.7201 7.68186 7.08055 7.68186 6.33345C7.68186 5.58636 7.94786 4.94669 8.47986 4.41445C9.01185 3.88245 9.6514 3.61646 10.3985 3.61646C11.1456 3.61646 11.7851 3.88245 12.3171 4.41445C12.8494 4.94669 13.1155 5.58636 13.1155 6.33345C13.1155 7.08055 12.8494 7.7201 12.3171 8.25209C11.7851 8.78409 11.1456 9.05009 10.3985 9.05009ZM7.62521 32.3699V22.3798H5.30444V13.635C5.30444 12.9033 5.56492 12.277 6.08588 11.756C6.60684 11.2351 7.23314 10.9746 7.96479 10.9746H12.323C12.8437 10.9746 13.3131 11.1082 13.731 11.3753C14.1489 11.6421 14.4691 12.0086 14.6916 12.4746L19.1602 21.8731L19.5218 23.7611L17.5528 23.6818L14.0776 16.0035V32.3699H7.62521Z" fill="#92DDFF"/>
</svg>
