<svg width="36" height="36" viewBox="0 0 36 36" fill="none" xmlns="http://www.w3.org/2000/svg">
<path d="M18.5651 17.229C17.991 17.229 17.5034 17.028 17.1023 16.626C16.7016 16.224 16.5012 15.7358 16.5012 15.1614C16.5012 14.5872 16.7022 14.0996 17.1042 13.6986C17.5062 13.2976 17.9944 13.0971 18.5688 13.0971C19.143 13.0971 19.6306 13.2982 20.0316 13.7004C20.4324 14.1024 20.6328 14.5905 20.6328 15.1647C20.6328 15.7391 20.4318 16.2269 20.0298 16.6279C19.6278 17.0287 19.1396 17.229 18.5651 17.229ZM16.5578 32.3699V26.8513H15.0862V20.7665C15.0862 20.2085 15.2814 19.7341 15.6719 19.3434C16.0626 18.9527 16.5371 18.7573 17.0953 18.7573H20.0386C20.5968 18.7573 21.0713 18.9527 21.462 19.3434C21.8525 19.7341 22.0478 20.2085 22.0478 20.7665V26.8513H20.5761V32.3699H16.5578Z" fill="#92DDFF"/>
<path d="M26.6609 9.05009C25.9139 9.05009 25.2743 8.78409 24.7423 8.25209C24.2101 7.7201 23.944 7.08055 23.944 6.33345C23.944 5.58636 24.2101 4.94669 24.7423 4.41445C25.2743 3.88245 25.9139 3.61646 26.6609 3.61646C27.408 3.61646 28.0476 3.88245 28.5796 4.41445C29.1118 4.94669 29.3779 5.58636 29.3779 6.33345C29.3779 7.08055 29.1118 7.7201 28.5796 8.25209C28.0476 8.78409 27.408 9.05009 26.6609 9.05009ZM24.991 32.3699V20.7665C24.991 19.8472 24.7679 19.0198 24.3218 18.2842C23.8756 17.5486 23.2649 16.9695 22.4896 16.5469L23.9046 12.6302C24.1008 12.0548 24.4531 11.5926 24.9616 11.2436C25.47 10.8945 26.0365 10.72 26.6609 10.72C27.2854 10.72 27.8519 10.8922 28.3603 11.2366C28.8688 11.5809 29.2211 12.0455 29.4173 12.6302L33.2833 23.4551H29.4909V32.3699H24.991ZM8.26556 9.05009C7.51846 9.05009 6.87892 8.78409 6.34692 8.25209C5.81468 7.7201 5.54856 7.08055 5.54856 6.33345C5.54856 5.58636 5.81468 4.94669 6.34692 4.41445C6.87892 3.88245 7.51846 3.61646 8.26556 3.61646C9.01266 3.61646 9.6522 3.88245 10.1842 4.41445C10.7164 4.94669 10.9826 5.58636 10.9826 6.33345C10.9826 7.08055 10.7164 7.7201 10.1842 8.25209C9.6522 8.78409 9.01266 9.05009 8.26556 9.05009ZM5.49227 32.3699V22.3798H3.17151V13.635C3.17151 12.9033 3.43199 12.277 3.95294 11.756C4.4739 11.2351 5.1002 10.9746 5.83185 10.9746H10.6993C11.4309 10.9746 12.0572 11.2351 12.5782 11.756C13.0991 12.277 13.3596 12.9033 13.3596 13.635V22.3798H11.0388V32.3699H5.49227Z" fill="#00AEFF"/>
</svg>
