<svg width="36" height="36" viewBox="0 0 36 36" fill="none" xmlns="http://www.w3.org/2000/svg">
<path d="M17.9042 23.6254C17.0193 23.6254 16.1811 23.4202 15.3896 23.0099C14.5983 22.5996 13.9347 22.033 13.3988 21.3102C13.0196 20.7632 12.5574 20.3166 12.0122 19.9703C11.4669 19.6242 10.8735 19.4134 10.2319 19.3378C10.8563 18.5718 11.9473 17.9771 13.5048 17.5535C15.0622 17.1299 16.5287 16.9181 17.9042 16.9181C19.2797 16.9181 20.7462 17.1299 22.3037 17.5535C23.8611 17.9771 24.9568 18.5718 25.5905 19.3378C24.9641 19.4134 24.3746 19.6242 23.822 19.9703C23.2692 20.3166 22.8031 20.7632 22.424 21.3102C21.9126 22.0575 21.2588 22.6302 20.4626 23.0283C19.6665 23.4264 18.8137 23.6254 17.9042 23.6254ZM17.9042 14.7956C16.7912 14.7956 15.8384 14.3994 15.0459 13.6069C14.2535 12.8144 13.8572 11.8617 13.8572 10.7486C13.8572 9.61083 14.2535 8.65194 15.0459 7.87197C15.8384 7.09176 16.7912 6.70166 17.9042 6.70166C19.0418 6.70166 20.0007 7.09176 20.7809 7.87197C21.5611 8.65194 21.9512 9.61083 21.9512 10.7486C21.9512 11.8617 21.5611 12.8144 20.7809 13.6069C20.0007 14.3994 19.0418 14.7956 17.9042 14.7956Z" fill="#92DDFF"/>
<path d="M2.46643 29.342V23.8234C2.46643 23.1121 2.70741 22.5098 3.18937 22.0166C3.67133 21.5231 4.25569 21.2669 4.94245 21.248H9.47912C9.92257 21.248 10.3438 21.3565 10.7429 21.5736C11.1417 21.7907 11.4667 22.0935 11.7178 22.482C12.4478 23.4856 13.3528 24.2667 14.433 24.8252C15.5132 25.3837 16.6702 25.6629 17.9042 25.6629C19.1531 25.6629 20.32 25.3837 21.4049 24.8252C22.4899 24.2667 23.39 23.4856 24.1049 22.482C24.386 22.0935 24.7223 21.7907 25.1137 21.5736C25.5052 21.3565 25.9104 21.248 26.3293 21.248H30.866C31.5677 21.2669 32.1582 21.5231 32.6374 22.0166C33.1167 22.5098 33.3563 23.1121 33.3563 23.8234V29.342H23.7907V25.8807C22.9512 26.5223 22.0324 27.0143 21.0344 27.3567C20.0361 27.6991 18.9927 27.8703 17.9042 27.8703C16.8402 27.8703 15.8077 27.6977 14.8068 27.3523C13.8058 27.0072 12.8808 26.5139 12.0317 25.8722V29.342H2.46643ZM6.55573 19.2105C5.44268 19.2105 4.48992 18.8143 3.69745 18.0218C2.90498 17.2293 2.50874 16.2766 2.50874 15.1635C2.50874 14.0257 2.90498 13.0668 3.69745 12.2869C4.48992 11.5067 5.44268 11.1166 6.55573 11.1166C7.6933 11.1166 8.65219 11.5067 9.4324 12.2869C10.2126 13.0668 10.6027 14.0257 10.6027 15.1635C10.6027 16.2766 10.2126 17.2293 9.4324 18.0218C8.65219 18.8143 7.6933 19.2105 6.55573 19.2105ZM29.2527 19.2105C28.1397 19.2105 27.1869 18.8143 26.3944 18.0218C25.6019 17.2293 25.2057 16.2766 25.2057 15.1635C25.2057 14.0257 25.6019 13.0668 26.3944 12.2869C27.1869 11.5067 28.1397 11.1166 29.2527 11.1166C30.3903 11.1166 31.3492 11.5067 32.1294 12.2869C32.9096 13.0668 33.2997 14.0257 33.2997 15.1635C33.2997 16.2766 32.9096 17.2293 32.1294 18.0218C31.3492 18.8143 30.3903 19.2105 29.2527 19.2105Z" fill="#00AEFF"/>
</svg>
