<svg width="36" height="37" viewBox="0 0 36 37" fill="none" xmlns="http://www.w3.org/2000/svg">
<g clip-path="url(#clip0_153_5494)">
<path d="M8.06646 27.209C7.56831 26.3071 1.41857 18.5657 1.15442 17.6346C0.890258 16.7036 0.758179 15.772 0.758179 14.84C0.758179 12.3193 1.62423 10.1931 3.35634 8.4612C5.08821 6.72909 7.21447 5.86304 9.73513 5.86304C11.2521 5.86304 12.7025 6.21868 14.0864 6.92997C15.4702 7.64126 16.6687 8.64883 17.6819 9.9527C18.6952 8.64883 19.8937 7.64126 21.2775 6.92997C22.6613 6.21868 24.1117 5.86304 25.6287 5.86304C28.1494 5.86304 30.2757 6.72909 32.0075 8.4612C33.7396 10.1931 34.6057 12.3193 34.6057 14.84C34.6057 15.7531 34.4736 16.6706 34.2095 17.5923C33.9453 18.5138 28.8864 26.7275 28.3883 27.6578C28.1751 27.3238 27.6818 27.0246 27.3941 26.7605C27.1064 26.4966 26.7833 26.2825 26.4247 26.1181C26.7681 25.422 31.95 17.4574 32.1293 16.7998C32.3086 16.1423 32.3982 15.489 32.3982 14.84C32.3982 12.9362 31.7459 11.332 30.4413 10.0274C29.1367 8.72278 27.5325 8.07048 25.6287 8.07048C23.878 8.07048 22.4266 8.57145 21.2746 9.57339C20.1228 10.5751 18.9252 11.8401 17.6819 13.3684C16.4387 11.8251 15.2411 10.5563 14.0893 9.56198C12.9373 8.56765 11.4859 8.07048 9.73513 8.07048C7.83133 8.07048 6.22713 8.72278 4.92253 10.0274C3.61793 11.332 2.96563 12.9362 2.96563 14.84C2.96563 15.5079 3.05527 16.1729 3.23457 16.8352C3.41386 17.4974 9.439 24.9922 9.77282 25.6696C9.41447 25.843 9.09378 26.0595 8.81074 26.319C8.52769 26.5785 8.2796 26.8752 8.06646 27.209ZM9.2846 32.3807V30.5864C9.2846 29.5921 9.79734 28.7842 10.8228 28.1627C11.8483 27.5409 13.1799 27.23 14.8176 27.23C15.1175 27.23 15.4052 27.2385 15.6807 27.2554C14.8911 27.1564 15.9561 27.2723 15.6807 27.2554C16.5467 27.2554 19.2225 27.5869 19.7983 28.1627C20.4693 28.8336 20.9099 29.7477 20.9099 30.3006V32.3807H9.2846ZM21.4962 32.3807V30.3006C21.4962 29.7477 21.4307 29.227 21.2997 28.7384C21.1685 28.2499 20.9718 27.7885 20.7096 27.3544C20.9605 27.3053 21.2199 27.2723 21.4877 27.2554C21.7556 27.2385 22.032 27.23 22.317 27.23C23.9696 27.23 25.3026 27.5409 26.3158 28.1627C27.329 28.7842 27.8356 29.5921 27.8356 30.5864V32.3807H21.4962ZM14.8176 25.8007C14.1212 25.8007 13.5273 25.5551 13.0358 25.0638C12.5443 24.5723 12.2985 23.9783 12.2985 23.282C12.2985 22.5803 12.5443 21.9875 13.0358 21.5035C13.5273 21.0196 14.1212 20.7777 14.8176 20.7777C15.5193 20.7777 16.1144 21.0196 16.603 21.5035C17.0918 21.9875 17.3363 22.5803 17.3363 23.282C17.3363 23.9783 17.0918 24.5723 16.603 25.0638C16.1144 25.5551 15.5193 25.8007 14.8176 25.8007ZM22.317 25.8007C21.6302 25.8007 21.0388 25.5551 20.5426 25.0638C20.0464 24.5723 19.7983 23.9783 19.7983 23.282C19.7983 22.5803 20.0464 21.9875 20.5426 21.5035C21.0388 21.0196 21.6302 20.7777 22.317 20.7777C23.0283 20.7777 23.6259 21.0196 24.1098 21.5035C24.5937 21.9875 24.8357 22.5803 24.8357 23.282C24.8357 23.9783 24.5937 24.5723 24.1098 25.0638C23.6259 25.5551 23.0283 25.8007 22.317 25.8007Z" fill="#92DDFF"/>
<path d="M8.06646 27.209C7.56831 26.3071 1.41857 18.5657 1.15442 17.6346C0.890258 16.7036 0.758179 15.772 0.758179 14.84C0.758179 12.3193 1.62423 10.1931 3.35634 8.4612C5.08821 6.72909 7.21447 5.86304 9.73513 5.86304C11.2521 5.86304 12.7025 6.21868 14.0864 6.92997C15.4702 7.64126 16.6687 8.64883 17.6819 9.9527C18.6952 8.64883 19.8937 7.64126 21.2775 6.92997C22.6613 6.21868 24.1117 5.86304 25.6287 5.86304C28.1494 5.86304 30.2757 6.72909 32.0075 8.4612C33.7396 10.1931 34.6057 12.3193 34.6057 14.84C34.6057 15.7531 34.4736 16.6706 34.2095 17.5923C33.9453 18.5138 28.8864 26.7275 28.3883 27.6578C28.1751 27.3238 27.6818 27.0246 27.3941 26.7605C27.1064 26.4966 26.7833 26.2825 26.4247 26.1181C26.7681 25.422 31.95 17.4574 32.1293 16.7998C32.3086 16.1423 32.3982 15.489 32.3982 14.84C32.3982 12.9362 31.7459 11.332 30.4413 10.0274C29.1367 8.72278 27.5325 8.07048 25.6287 8.07048C23.878 8.07048 22.4266 8.57145 21.2746 9.57339C20.1228 10.5751 18.9252 11.8401 17.6819 13.3684C16.4387 11.8251 15.2411 10.5563 14.0893 9.56198C12.9373 8.56765 11.4859 8.07048 9.73513 8.07048C7.83133 8.07048 6.22713 8.72278 4.92253 10.0274C3.61793 11.332 2.96563 12.9362 2.96563 14.84C2.96563 15.5079 3.05527 16.1729 3.23457 16.8352C3.41386 17.4974 9.439 24.9922 9.77282 25.6696C9.41447 25.843 9.09378 26.0595 8.81074 26.319C8.52769 26.5785 8.2796 26.8752 8.06646 27.209ZM9.2846 32.3807V30.5864C9.2846 29.5921 9.79734 28.7842 10.8228 28.1627C11.8483 27.5409 13.1799 27.23 14.8176 27.23C15.1175 27.23 15.4052 27.2385 15.6807 27.2554C14.8911 27.1564 15.9561 27.2723 15.6807 27.2554C16.5467 27.2554 19.2225 27.5869 19.7983 28.1627C20.4693 28.8336 20.9099 29.7477 20.9099 30.3006V32.3807H9.2846ZM14.8176 25.8007C14.1212 25.8007 13.5273 25.5551 13.0358 25.0638C12.5443 24.5723 12.2985 23.9783 12.2985 23.282C12.2985 22.5803 12.5443 21.9875 13.0358 21.5035C13.5273 21.0196 14.1212 20.7777 14.8176 20.7777C15.5193 20.7777 16.1144 21.0196 16.603 21.5035C17.0918 21.9875 17.3363 22.5803 17.3363 23.282C17.3363 23.9783 17.0918 24.5723 16.603 25.0638C16.1144 25.5551 15.5193 25.8007 14.8176 25.8007Z" fill="#00AEFF"/>
</g>
<defs>
<clipPath id="clip0_153_5494">
<rect width="35.3191" height="35.3191" fill="white" transform="translate(0.0212402 0.712646)"/>
</clipPath>
</defs>
</svg>
