<svg width="40" height="40" viewBox="0 0 40 40" fill="none" xmlns="http://www.w3.org/2000/svg">
<path d="M20 26.3468C18.9978 26.3468 18.0485 26.1144 17.1521 25.6497C16.256 25.185 15.5044 24.5433 14.8975 23.7247C14.468 23.1053 13.9446 22.5994 13.3271 22.2072C12.7096 21.8153 12.0375 21.5765 11.3108 21.4909C12.018 20.6234 13.2536 19.9498 15.0175 19.4701C16.7814 18.9904 18.4422 18.7505 20 18.7505C21.5578 18.7505 23.2186 18.9904 24.9825 19.4701C26.7464 19.9498 27.9872 20.6234 28.705 21.4909C27.9955 21.5765 27.3279 21.8153 26.7021 22.2072C26.076 22.5994 25.5482 23.1053 25.1187 23.7247C24.5396 24.5711 23.7991 25.2197 22.8975 25.6705C21.9958 26.1214 21.03 26.3468 20 26.3468ZM20 16.3468C18.7394 16.3468 17.6604 15.898 16.7629 15.0005C15.8654 14.103 15.4166 13.024 15.4166 11.7634C15.4166 10.4748 15.8654 9.38886 16.7629 8.50553C17.6604 7.62192 18.7394 7.18011 20 7.18011C21.2883 7.18011 22.3743 7.62192 23.2579 8.50553C24.1415 9.38886 24.5833 10.4748 24.5833 11.7634C24.5833 13.024 24.1415 14.103 23.2579 15.0005C22.3743 15.898 21.2883 16.3468 20 16.3468Z" fill="#FFB0B0"/>
<path d="M2.51624 32.821V26.571C2.51624 25.7654 2.78915 25.0833 3.33499 24.5247C3.88082 23.9658 4.54262 23.6757 5.3204 23.6543H10.4583C10.9605 23.6543 11.4376 23.7772 11.8896 24.023C12.3412 24.2689 12.7093 24.6118 12.9937 25.0518C13.8204 26.1885 14.8454 27.073 16.0687 27.7055C17.2921 28.338 18.6025 28.6543 20 28.6543C21.4144 28.6543 22.736 28.338 23.9646 27.7055C25.1935 27.073 26.2128 26.1885 27.0225 25.0518C27.3408 24.6118 27.7216 24.2689 28.165 24.023C28.6083 23.7772 29.0672 23.6543 29.5416 23.6543H34.6796C35.4743 23.6757 36.143 23.9658 36.6858 24.5247C37.2286 25.0833 37.5 25.7654 37.5 26.571V32.821H26.6666V28.9009C25.7158 29.6276 24.6753 30.1848 23.545 30.5726C22.4144 30.9604 21.2328 31.1543 20 31.1543C18.795 31.1543 17.6257 30.9587 16.4921 30.5676C15.3585 30.1768 14.3108 29.618 13.3492 28.8914V32.821H2.51624ZM7.14748 21.3468C5.88693 21.3468 4.8079 20.898 3.9104 20.0005C3.0129 19.103 2.56415 18.024 2.56415 16.7634C2.56415 15.4748 3.0129 14.3889 3.9104 13.5055C4.8079 12.6219 5.88693 12.1801 7.14748 12.1801C8.43582 12.1801 9.52179 12.6219 10.4054 13.5055C11.289 14.3889 11.7308 15.4748 11.7308 16.7634C11.7308 18.024 11.289 19.103 10.4054 20.0005C9.52179 20.898 8.43582 21.3468 7.14748 21.3468ZM32.8525 21.3468C31.5919 21.3468 30.5129 20.898 29.6154 20.0005C28.7179 19.103 28.2691 18.024 28.2691 16.7634C28.2691 15.4748 28.7179 14.3889 29.6154 13.5055C30.5129 12.6219 31.5919 12.1801 32.8525 12.1801C34.1408 12.1801 35.2268 12.6219 36.1104 13.5055C36.994 14.3889 37.4358 15.4748 37.4358 16.7634C37.4358 18.024 36.994 19.103 36.1104 20.0005C35.2268 20.898 34.1408 21.3468 32.8525 21.3468Z" fill="#FF3939"/>
</svg>
