<svg width="34" height="33" viewBox="0 0 34 33" fill="none" xmlns="http://www.w3.org/2000/svg">
<path d="M17.7054 16.1964C17.1546 16.1964 16.6868 16.0143 16.3021 15.6501C15.9176 15.2859 15.7254 14.8435 15.7254 14.3231C15.7254 13.8029 15.9182 13.3611 16.3039 12.9977C16.6895 12.6344 17.1579 12.4527 17.7089 12.4527C18.2598 12.4527 18.7275 12.635 19.1122 12.9994C19.4967 13.3636 19.6889 13.8059 19.6889 14.3261C19.6889 14.8465 19.4961 15.2884 19.1105 15.6517C18.7248 16.0149 18.2565 16.1964 17.7054 16.1964ZM15.7798 29.9144V24.9144H14.368V19.4014C14.368 18.8959 14.5553 18.4661 14.9299 18.1121C15.3047 17.7581 15.7599 17.5811 16.2954 17.5811H19.1189C19.6545 17.5811 20.1096 17.7581 20.4845 18.1121C20.859 18.4661 21.0463 18.8959 21.0463 19.4014V24.9144H19.6346V29.9144H15.7798Z" fill="#92DDFF"/>
<path d="M25.4719 8.78608C24.7552 8.78608 24.1416 8.54508 23.6313 8.06308C23.1207 7.58108 22.8654 7.00163 22.8654 6.32474C22.8654 5.64785 23.1207 5.0683 23.6313 4.58608C24.1416 4.10408 24.7552 3.86308 25.4719 3.86308C26.1886 3.86308 26.8021 4.10408 27.3125 4.58608C27.823 5.0683 28.0783 5.64785 28.0783 6.32474C28.0783 7.00163 27.823 7.58108 27.3125 8.06308C26.8021 8.54508 26.1886 8.78608 25.4719 8.78608ZM23.8699 29.9144V19.4014C23.8699 18.5685 23.6559 17.8189 23.2279 17.1524C22.7999 16.486 22.214 15.9613 21.4702 15.5784L22.8276 12.0297C23.0159 11.5084 23.3539 11.0896 23.8416 10.7734C24.3294 10.4572 24.8728 10.2991 25.4719 10.2991C26.0709 10.2991 26.6143 10.4551 27.1021 10.7671C27.5899 11.0791 27.9279 11.5 28.1161 12.0297L31.8248 21.8374H28.1867V29.9144H23.8699ZM7.82481 8.78608C7.10811 8.78608 6.49458 8.54508 5.98422 8.06308C5.47364 7.58108 5.21834 7.00163 5.21834 6.32474C5.21834 5.64785 5.47364 5.0683 5.98422 4.58608C6.49458 4.10408 7.10811 3.86308 7.82481 3.86308C8.54152 3.86308 9.15505 4.10408 9.6654 4.58608C10.176 5.0683 10.4313 5.64785 10.4313 6.32474C10.4313 7.00163 10.176 7.58108 9.6654 8.06308C9.15505 8.54508 8.54152 8.78608 7.82481 8.78608ZM5.16434 29.9144V20.8631H2.93799V12.9401C2.93799 12.2772 3.18787 11.7097 3.68764 11.2377C4.1874 10.7657 4.78822 10.5297 5.49011 10.5297H10.1595C10.8614 10.5297 11.4622 10.7657 11.962 11.2377C12.4618 11.7097 12.7116 12.2772 12.7116 12.9401V20.8631H10.4853V29.9144H5.16434Z" fill="#00AEFF"/>
</svg>
