<svg width="36" height="33" viewBox="0 0 36 33" fill="none" xmlns="http://www.w3.org/2000/svg">
<path d="M10.8445 8.5366C10.1178 8.5366 9.49576 8.29226 8.97832 7.80356C8.46088 7.31487 8.20215 6.72737 8.20215 6.04108C8.20215 5.35479 8.46088 4.76719 8.97832 4.27827C9.49576 3.78957 10.1178 3.54523 10.8445 3.54523C11.5711 3.54523 12.1932 3.78957 12.7106 4.27827C13.2283 4.76719 13.4871 5.35479 13.4871 6.04108C13.4871 6.72737 13.2283 7.31487 12.7106 7.80356C12.1932 8.29226 11.5711 8.5366 10.8445 8.5366ZM24.9106 15.6338C24.36 15.6338 23.8874 15.4494 23.4928 15.0806C23.0982 14.7115 22.9009 14.2634 22.9009 13.7362C22.9009 13.1988 23.0982 12.7482 23.4928 12.3843C23.8874 12.0204 24.36 11.8385 24.9106 11.8385C25.4793 11.8385 25.9564 12.0204 26.3419 12.3843C26.7272 12.7482 26.9199 13.1967 26.9199 13.7297C26.9199 14.2626 26.7272 14.7132 26.3419 15.0816C25.9564 15.4498 25.4793 15.6338 24.9106 15.6338ZM8.14705 29.9584V20.7813H5.88977V12.7483C5.88977 12.0762 6.14312 11.5009 6.64983 11.0223C7.15654 10.5438 7.7657 10.3045 8.47734 10.3045H12.7163C13.2228 10.3045 13.6793 10.4272 14.0858 10.6725C14.4923 10.9177 14.8038 11.2543 15.0201 11.6824L19.3665 20.316L21.7422 17.7346C21.9238 17.5163 22.1491 17.3455 22.4182 17.2223C22.6871 17.0992 22.9709 17.0377 23.2699 17.0377H26.7821C27.3251 17.0377 27.7866 17.2172 28.1666 17.5761C28.5466 17.935 28.7366 18.3709 28.7366 18.8837V23.5891H27.3053V29.9584H22.5155V19.9442L20.5807 21.9774H17.8031L14.4229 14.9241V29.9584H8.14705Z" fill="#FF3939"/>
<path d="M10.8445 8.5366C10.1178 8.5366 9.49576 8.29226 8.97832 7.80356C8.46088 7.31487 8.20215 6.72737 8.20215 6.04108C8.20215 5.35479 8.46088 4.76719 8.97832 4.27827C9.49576 3.78957 10.1178 3.54523 10.8445 3.54523C11.5711 3.54523 12.1932 3.78957 12.7106 4.27827C13.2283 4.76719 13.4871 5.35479 13.4871 6.04108C13.4871 6.72737 13.2283 7.31487 12.7106 7.80356C12.1932 8.29226 11.5711 8.5366 10.8445 8.5366ZM8.14705 29.9584V20.7813H5.88977V12.7483C5.88977 12.0762 6.14312 11.5009 6.64983 11.0223C7.15654 10.5438 7.7657 10.3045 8.47734 10.3045H12.7163C13.2228 10.3045 13.6793 10.4272 14.0858 10.6725C14.4923 10.9177 14.8038 11.2543 15.0201 11.6824L19.3665 20.316L19.7182 22.0503L17.8031 21.9774L14.4229 14.9241V29.9584H8.14705Z" fill="#FFB0B0"/>
</svg>
