<svg width="34" height="32" viewBox="0 0 34 32" fill="none" xmlns="http://www.w3.org/2000/svg">
<path d="M17.7054 15.2821C17.1546 15.2821 16.6868 15.1 16.3021 14.7358C15.9176 14.3716 15.7254 13.9292 15.7254 13.4088C15.7254 12.8886 15.9182 12.4468 16.3039 12.0835C16.6895 11.7201 17.1579 11.5385 17.7089 11.5385C18.2598 11.5385 18.7275 11.7207 19.1122 12.0851C19.4967 12.4493 19.6889 12.8916 19.6889 13.4118C19.6889 13.9322 19.4961 14.3741 19.1105 14.7375C18.7248 15.1006 18.2565 15.2821 17.7054 15.2821ZM15.7798 29.0001V24.0001H14.368V18.4871C14.368 17.9816 14.5553 17.5518 14.9299 17.1978C15.3047 16.8438 15.7599 16.6668 16.2954 16.6668H19.1189C19.6545 16.6668 20.1096 16.8438 20.4845 17.1978C20.859 17.5518 21.0463 17.9816 21.0463 18.4871V24.0001H19.6346V29.0001H15.7798Z" fill="#FFB0B0"/>
<path d="M25.4719 7.87179C24.7552 7.87179 24.1416 7.63079 23.6313 7.14879C23.1207 6.66679 22.8654 6.08735 22.8654 5.41046C22.8654 4.73357 23.1207 4.15401 23.6313 3.67179C24.1416 3.18979 24.7552 2.94879 25.4719 2.94879C26.1886 2.94879 26.8021 3.18979 27.3125 3.67179C27.823 4.15401 28.0783 4.73357 28.0783 5.41046C28.0783 6.08735 27.823 6.66679 27.3125 7.14879C26.8021 7.63079 26.1886 7.87179 25.4719 7.87179ZM23.8699 29.0001V18.4871C23.8699 17.6542 23.6559 16.9046 23.2279 16.2381C22.7999 15.5717 22.214 15.047 21.4702 14.6641L22.8276 11.1155C23.0159 10.5941 23.3539 10.1753 23.8416 9.85912C24.3294 9.5429 24.8728 9.38479 25.4719 9.38479C26.0709 9.38479 26.6143 9.54079 27.1021 9.85279C27.5899 10.1648 27.9279 10.5857 28.1161 11.1155L31.8248 20.9231H28.1867V29.0001H23.8699ZM7.82481 7.87179C7.10811 7.87179 6.49458 7.63079 5.98422 7.14879C5.47364 6.66679 5.21834 6.08735 5.21834 5.41046C5.21834 4.73357 5.47364 4.15401 5.98422 3.67179C6.49458 3.18979 7.10811 2.94879 7.82481 2.94879C8.54152 2.94879 9.15505 3.18979 9.6654 3.67179C10.176 4.15401 10.4313 4.73357 10.4313 5.41046C10.4313 6.08735 10.176 6.66679 9.6654 7.14879C9.15505 7.63079 8.54152 7.87179 7.82481 7.87179ZM5.16434 29.0001V19.9488H2.93799V12.0258C2.93799 11.3629 3.18787 10.7955 3.68764 10.3235C4.1874 9.85146 4.78822 9.61546 5.49011 9.61546H10.1595C10.8614 9.61546 11.4622 9.85146 11.962 10.3235C12.4618 10.7955 12.7116 11.3629 12.7116 12.0258V19.9488H10.4853V29.0001H5.16434Z" fill="#FF3939"/>
</svg>
