<svg width="28" height="28" viewBox="0 0 28 28" fill="none" xmlns="http://www.w3.org/2000/svg">
<path d="M16.423 14.8525H21.7176V13.1025H16.423V14.8525ZM16.423 11.4873H21.7176V9.73729H16.423V11.4873ZM6.28205 18.2627H14.8075V17.8456C14.8075 17.0678 14.4227 16.4568 13.653 16.0125C12.8836 15.5682 11.8475 15.346 10.5448 15.346C9.24198 15.346 8.20578 15.5682 7.43617 16.0125C6.66675 16.4568 6.28205 17.0678 6.28205 17.8456V18.2627ZM10.5448 13.8206C11.1116 13.8206 11.5935 13.622 11.9905 13.2248C12.3878 12.8277 12.5864 12.3458 12.5864 11.779C12.5864 11.212 12.3878 10.7299 11.9905 10.3329C11.5935 9.93582 11.1116 9.73729 10.5448 9.73729C9.97795 9.73729 9.49592 9.93582 9.09867 10.3329C8.70161 10.7299 8.50309 11.212 8.50309 11.779C8.50309 12.3458 8.70161 12.8277 9.09867 13.2248C9.49592 13.622 9.97795 13.8206 10.5448 13.8206ZM5.02555 22.75C4.43618 22.75 3.93734 22.5458 3.529 22.1375C3.12067 21.7292 2.9165 21.2303 2.9165 20.641V7.35904C2.9165 6.76968 3.12067 6.27083 3.529 5.8625C3.93734 5.45417 4.43618 5.25 5.02555 5.25H22.9741C23.5635 5.25 24.0623 5.45417 24.4707 5.8625C24.879 6.27083 25.0832 6.76968 25.0832 7.35904V20.641C25.0832 21.2303 24.879 21.7292 24.4707 22.1375C24.0623 22.5458 23.5635 22.75 22.9741 22.75H5.02555Z" fill="#3B3B3B"/>
</svg>
